<?xml version="1.0" encoding="UTF-8" standalone="no"?>
<svg xmlns="http://www.w3.org/2000/svg" height="22px" width="138px" version="1.1" xmlns:xlink="http://www.w3.org/1999/xlink" viewBox="0 0 138 22"> <title>B4BFA35F-5B62-47BF-80AA-5D024CCB284B</title> <desc>Created with sketchtool.</desc> <g id="Page-1" fill-rule="evenodd" fill="none">  <g id="android-landing-page-VA1" fill="#FFEC00" transform="translate(-91 -32)">   <path id="MC-Logo---1200" d="m213.1 32.853v21.147h5.27v-21.147h-5.27zm6.31 5.287v5.287h4.01v10.573h5.28v-15.86h-9.29zm-14.12 7.815v2.529h-7.8v5.516h13.08v-8.045h-5.28zm-7.57-7.815v7.815h5.28v-2.528h7.8v-5.287h-13.08zm-7.8 0v15.86h5.28v-15.86h-5.28zm-5.05 10.573v-10.573h-5.28v15.86h9.29v-5.287h-4.01zm-19.05-10.573v15.86h5.28v-15.86h-5.28zm6.31 0v5.287h5.39v-5.287h-5.39zm-21.69 0v5.287h13.08v-5.287h-13.08zm5.28 10.573v-4.252h-5.28v9.539h13.08v-5.287h-7.8zm-48.88-10.573v2.758h-2.53v5.057h-2.75v-5.057h-5.281v-2.758h-5.279v15.86h5.279v-8.045h2.524v5.287h5.507v-5.287h2.53v8.045h5.27v-15.86h-5.27zm31.78 0v5.287h4.25v5.286h5.28v-10.573h-9.53zm-1.03-5.287h-5.28v21.147h10.56v-5.287h-5.28v-15.86zm-23.18 5.287v15.86h5.28v-10.573h4.01v-5.287h-9.29zm10.33 0v10.573h-4.02v5.287h9.3v-15.86h-5.28z"/>  </g> </g></svg>